<?xml version="1.0" encoding="UTF-8"?>
<svg version="1.1" xmlns="http://www.w3.org/2000/svg" width="2000" height="2000">
<path d="M0 0 C660 0 1320 0 2000 0 C2000 660 2000 1320 2000 2000 C1340 2000 680 2000 0 2000 C0 1340 0 680 0 0 Z " fill="#000000" transform="translate(0,0)"/>
<path d="M0 0 C660 0 1320 0 2000 0 C2000 660 2000 1320 2000 2000 C1340 2000 680 2000 0 2000 C0 1340 0 680 0 0 Z M956 109 C955.13487793 109.13390137 954.26975586 109.26780273 953.37841797 109.40576172 C931.01210549 112.99918096 909.47287493 120.42904942 889 130 C888.2869873 130.32967773 887.57397461 130.65935547 886.83935547 130.99902344 C851.24143617 147.60520412 817.91814765 173.78052306 794 205 C793.07050013 206.1772315 792.14079973 207.3543047 791.2109375 208.53125 C783.19272679 218.81436617 776.47246479 229.69421672 770 241 C769.6292334 241.63164062 769.2584668 242.26328125 768.87646484 242.9140625 C758.98931448 259.78510627 751.28580266 278.8889635 746.53710938 297.85644531 C746.15998659 299.36150808 745.76946771 300.86324707 745.36914062 302.36230469 C739.82784234 323.2031113 738.46816207 344.55991254 737 366 C736.22398437 365.26136719 735.44796875 364.52273438 734.6484375 363.76171875 C726.78205948 356.34516495 718.63921468 349.49634116 710 343 C709.44763672 342.58008789 708.89527344 342.16017578 708.32617188 341.72753906 C687.84834076 326.24223702 664.88560299 315.12460722 641 306 C639.78570313 305.525625 638.57140625 305.05125 637.3203125 304.5625 C619.47437483 297.84402935 600.82203371 294.61788692 582 292 C580.11740479 291.73521851 580.11740479 291.73521851 578.19677734 291.46508789 C573.89611993 290.93646067 569.63442227 290.80481595 565.3046875 290.76171875 C564.07801865 290.74716393 564.07801865 290.74716393 562.8265686 290.73231506 C560.1759953 290.70740407 557.52567877 290.69477881 554.875 290.6875 C553.96693604 290.68488159 553.05887207 290.68226318 552.12329102 290.67956543 C529.7137148 290.67267139 507.63945979 292.93198477 486 299 C485.25766113 299.19787109 484.51532227 299.39574219 483.75048828 299.59960938 C448.49803812 309.03510149 414.80903451 326.35236949 387 350 C385.83597656 350.98613281 385.83597656 350.98613281 384.6484375 351.9921875 C382.74385548 353.63877833 380.8692111 355.31343531 379 357 C377.83791016 358.02480469 377.83791016 358.02480469 376.65234375 359.0703125 C366.8940578 367.72758628 358.08974817 376.76288962 350 387 C349.12742797 388.07123058 348.25368828 389.14151088 347.37890625 390.2109375 C322.10288569 421.36993603 304.9081425 458.55736387 296.49853516 497.70678711 C296.174383 499.19785527 295.83624274 500.68597468 295.48193359 502.17016602 C280.5468605 565.31383614 296.37023366 636.37580939 329.82421875 690.984375 C337.99070933 704.02913336 347.32780207 716.13460932 357.7265625 727.48046875 C360.54438848 730.60331713 363.27472611 733.79639633 366 737 C365.09012329 737.06731323 365.09012329 737.06731323 364.16186523 737.13598633 C343.45849338 738.69509799 323.05943878 740.45785081 303 746 C300.98018459 746.48343953 298.95940191 746.96286255 296.9375 747.4375 C262.57307419 756.16643169 230.39603612 773.69398424 203 796 C202.45988281 796.43715332 201.91976562 796.87430664 201.36328125 797.32470703 C187.28850902 808.8035204 174.05823131 821.56879466 163 836 C162.22914063 836.95390625 161.45828125 837.9078125 160.6640625 838.890625 C140.65843976 864.00809456 124.94933758 894.14668932 116 925 C115.76039551 925.81936035 115.52079102 926.6387207 115.27392578 927.48291016 C107.22276498 955.63899883 105.38419231 983.71521349 105.49853251 1012.79538974 C105.51071648 1017.06295967 105.49914816 1021.33048596 105.49089086 1025.59805638 C105.47963017 1033.04333216 105.48291095 1040.48848515 105.4962616 1047.93375587 C105.51605888 1059.00507403 105.51259102 1070.07630392 105.504761 1081.1476327 C105.49226472 1099.78403779 105.49849159 1118.42039201 105.51594925 1137.05679131 C105.53322158 1155.49979563 105.54298853 1173.94277709 105.54261398 1192.38578987 C105.54259869 1193.53616381 105.5425834 1194.68653776 105.54256765 1195.87177152 C105.54248582 1200.54208799 105.54235459 1205.21240445 105.54215602 1209.88272092 C105.54034711 1253.62054429 105.56018672 1297.35833291 105.59101535 1341.09614423 C105.61828695 1379.93071905 105.63073661 1418.76526921 105.62939453 1457.59985352 C105.62931371 1460.09578931 105.62923299 1462.59172511 105.62915237 1465.0876609 C105.62911167 1466.32162573 105.62907097 1467.55559055 105.62902904 1468.82694825 C105.62882743 1475.03894399 105.62864627 1481.25093972 105.62848854 1487.46293545 C105.62845511 1488.6885521 105.62842169 1489.91416875 105.62838725 1491.17692529 C105.62765675 1523.66825635 105.63673528 1556.15958434 105.64914167 1588.65091282 C105.64958221 1589.80674709 105.65002276 1590.96258136 105.65047665 1592.15344092 C105.65225301 1596.80090148 105.65402983 1601.44836204 105.65585856 1606.09582258 C105.66217185 1622.24789157 105.66519621 1638.39995813 105.66608154 1654.55202827 C105.66727634 1675.35746956 105.67527848 1696.16289055 105.69494446 1716.96832316 C105.70516029 1727.9651834 105.70999788 1738.96201385 105.70695209 1749.9588786 C105.70548015 1757.30840701 105.71131351 1764.6579065 105.72303971 1772.00742564 C105.72952039 1776.19148424 105.73293601 1780.37548055 105.72751851 1784.55954211 C105.72265088 1788.37444847 105.72714871 1792.18923089 105.73875474 1796.00412166 C105.74253374 1798.00411014 105.73666982 1800.00411 105.73027462 1802.00409183 C105.78479299 1814.07481204 106.7656537 1826.35568361 110.125 1838 C110.33527832 1838.73855225 110.54555664 1839.47710449 110.76220703 1840.23803711 C114.27001672 1851.86091042 119.79131997 1862.98620423 128 1872 C128.67675781 1872.75667969 129.35351562 1873.51335937 130.05078125 1874.29296875 C146.16483885 1891.38016659 170.0160226 1898.76120069 192.99145173 1900.18543898 C195.98977029 1900.25338569 198.9823043 1900.26538458 201.98135585 1900.251849 C203.12070707 1900.25477786 204.2600583 1900.25770673 205.43393532 1900.26072434 C209.23917198 1900.2680815 213.0442468 1900.26126157 216.84948254 1900.25447559 C219.62198326 1900.25575562 222.39447756 1900.26004989 225.16697529 1900.26419219 C231.20735449 1900.27161914 237.2476984 1900.27164476 243.2880797 1900.26680271 C252.33083102 1900.25958974 261.373552 1900.26393096 270.41630252 1900.27048406 C285.82940153 1900.28131275 301.24248832 1900.28264181 316.65559006 1900.27878571 C332.27421571 1900.2749094 347.89283226 1900.27536456 363.51145744 1900.2810955 C364.49812595 1900.28145433 365.48479447 1900.28181316 366.50136202 1900.28218286 C370.51995117 1900.28365777 374.53854031 1900.28516217 378.55712943 1900.28670432 C419.35126518 1900.30234072 460.14539468 1900.30501812 500.9395329 1900.30254826 C506.57651616 1900.30220981 512.21349943 1900.30188772 517.8504827 1900.30158257 C519.52994022 1900.30149101 519.52994022 1900.30149101 521.24332617 1900.30139759 C546.05421919 1900.30012579 570.86511134 1900.30272691 595.67600411 1900.30610864 C601.34092822 1900.30687938 607.00585234 1900.30762411 612.67077646 1900.30837366 C614.94433525 1900.30867535 617.21789403 1900.30897723 619.49145282 1900.3092793 C621.18189464 1900.30950382 621.18189464 1900.30950382 622.9064868 1900.30973287 C625.18601142 1900.3100364 627.46553604 1900.31034109 629.74506067 1900.31064692 C694.43017474 1900.31932065 759.11528806 1900.32396335 823.80040264 1900.31969929 C825.59723503 1900.3195822 825.59723503 1900.3195822 827.43036707 1900.31946275 C840.78817346 1900.31858995 854.14597984 1900.31766068 867.50378623 1900.31671212 C868.70980536 1900.31662661 869.91582448 1900.3165411 871.15838965 1900.316453 C878.47424925 1900.31593421 878.47424925 1900.31593421 885.79010884 1900.31541077 C962.93258704 1900.30987488 1040.07505327 1900.31741715 1117.2175293 1900.33618164 C1136.65497936 1900.34090383 1156.09242944 1900.34558433 1175.52987957 1900.3500185 C1176.72671041 1900.35029182 1177.92354126 1900.35056515 1179.1566397 1900.35084675 C1216.04172463 1900.35921761 1252.92680855 1900.36389767 1289.81189442 1900.36472607 C1290.96987075 1900.36475243 1292.12784708 1900.3647788 1293.32091361 1900.36480596 C1318.74078449 1900.36534674 1344.1606553 1900.36497431 1369.58052617 1900.36376625 C1378.67610078 1900.36334062 1387.77167539 1900.3629755 1396.86725 1900.36263681 C1399.13000576 1900.36255151 1401.39276151 1900.36246257 1403.65551726 1900.36236999 C1439.71372129 1900.3609211 1475.77191718 1900.36804825 1511.83011925 1900.37937395 C1549.1553205 1900.3910217 1586.48050723 1900.39159019 1623.80570855 1900.37953053 C1627.8143181 1900.37827869 1631.82292767 1900.37707521 1635.83153725 1900.37590981 C1636.81531812 1900.37561951 1637.799099 1900.37532922 1638.81269142 1900.37503013 C1654.38680475 1900.37070559 1669.96089744 1900.37643406 1685.53500753 1900.38635 C1700.85098731 1900.39588979 1716.16693525 1900.39470865 1731.48291318 1900.38214377 C1740.46039041 1900.37509759 1749.43777609 1900.37621325 1758.41524678 1900.38949216 C1764.38296255 1900.3974958 1770.35060923 1900.39455386 1776.31831869 1900.38284252 C1779.69777237 1900.37651258 1783.07689912 1900.37637915 1786.45636525 1900.38640973 C1803.72252401 1900.43415465 1820.7768965 1900.12797085 1837.25 1894.3125 C1837.98758545 1894.0561377 1838.7251709 1893.79977539 1839.48510742 1893.53564453 C1859.48559325 1886.27491315 1874.47716613 1872.92397455 1883.6875 1853.75 C1894.184048 1830.78700389 1894.45093648 1806.71324903 1894.39160402 1781.95192375 C1894.38483463 1777.72743509 1894.39558998 1773.50298237 1894.40399987 1769.27850163 C1894.4163219 1761.88977455 1894.41759858 1754.50111103 1894.41144943 1747.11237717 C1894.40232922 1736.12401397 1894.41041396 1725.13570917 1894.42174067 1714.14735044 C1894.44138005 1694.51399354 1894.44375998 1674.88066308 1894.43854547 1655.2472987 C1894.43398227 1638.05672953 1894.43459494 1620.8661708 1894.44038582 1603.67560196 C1894.4411427 1601.36661515 1894.44189868 1599.05762834 1894.44265376 1596.74864153 C1894.44379901 1593.26880855 1894.44494889 1589.78897558 1894.44611301 1586.30914261 C1894.45681466 1553.9647352 1894.46154704 1521.62033125 1894.45364285 1489.27592278 C1894.45334567 1488.05730099 1894.4530485 1486.83867921 1894.45274232 1485.5831295 C1894.45029359 1475.68818497 1894.44768189 1465.79324048 1894.44505819 1455.89829599 C1894.43496384 1417.33403624 1894.4432971 1378.76982007 1894.46655273 1340.20556641 C1894.49266518 1296.83419519 1894.50546207 1253.4628502 1894.49836498 1210.09147084 C1894.49764898 1205.46025348 1894.49697459 1200.82903612 1894.49632454 1196.19781876 C1894.49606983 1194.48745856 1894.49606983 1194.48745856 1894.49580997 1192.74254563 C1894.4935132 1175.57854578 1894.50145447 1158.41457039 1894.51461601 1141.25057602 C1894.52957432 1121.70910047 1894.53030813 1102.16768196 1894.5125451 1082.62620758 C1894.50302967 1071.71070682 1894.50431871 1060.79533937 1894.52177979 1049.87984771 C1894.53235704 1042.56242944 1894.52804725 1035.24511151 1894.51229975 1027.92770295 C1894.50376134 1023.77565862 1894.50100806 1019.62387314 1894.51656907 1015.47184323 C1894.57293107 999.26753936 1894.13892601 983.320533 1892.17570591 967.22111702 C1892.09506606 966.5535864 1892.01442622 965.88605578 1891.93134274 965.19829696 C1885.36922064 912.22772617 1860.93438745 861.50878609 1824.48828125 822.67578125 C1822.40338915 820.43378582 1820.40889794 818.1532465 1818.4375 815.8125 C1814.34373335 811.10902342 1809.70386804 807.07934319 1805 803 C1804.06671875 802.16726563 1803.1334375 801.33453125 1802.171875 800.4765625 C1771.8870292 773.77651426 1735.69131362 756.6620195 1697 746 C1695.78860352 745.66597168 1695.78860352 745.66597168 1694.55273438 745.32519531 C1674.7668543 740.0009001 1654.37134178 738.4121764 1634 737 C1634.52207031 736.42894531 1635.04414062 735.85789062 1635.58203125 735.26953125 C1650.61240925 718.71242484 1664.00779234 701.53003012 1675 682 C1675.39928711 681.29713867 1675.79857422 680.59427734 1676.20996094 679.87011719 C1683.42534626 667.05590828 1689.04203876 653.83442474 1694 640 C1694.32629395 639.09378906 1694.65258789 638.18757812 1694.98876953 637.25390625 C1698.75200605 626.62194332 1701.63828214 615.94307669 1703.8125 604.875 C1704.0074707 603.88781982 1704.20244141 602.90063965 1704.40332031 601.88354492 C1707.48288158 585.10753986 1708.38372566 568.27468909 1708.3125 551.25 C1708.31067719 550.33690063 1708.30885437 549.42380127 1708.30697632 548.48303223 C1708.25896737 534.14289985 1707.66906118 520.12455516 1705 506 C1704.75854248 504.67524658 1704.75854248 504.67524658 1704.51220703 503.32373047 C1700.33908812 481.1352452 1693.00346206 459.23864767 1683 439 C1682.58492187 438.15743652 1682.16984375 437.31487305 1681.7421875 436.44677734 C1673.62443937 420.13117172 1664.19859411 405.3725272 1653 391 C1651.99259766 389.700625 1651.99259766 389.700625 1650.96484375 388.375 C1619.56619508 348.93594971 1577.64355269 320.23293525 1530 304 C1528.92008789 303.6272998 1528.92008789 303.6272998 1527.81835938 303.24707031 C1512.86576246 298.17501573 1497.56798916 295.45969524 1482 293 C1480.88343018 292.81018555 1479.76686035 292.62037109 1478.61645508 292.42480469 C1469.52598916 290.96888198 1460.61361651 290.68268093 1451.4375 290.75 C1450.69498993 290.75276947 1449.95247986 290.75553894 1449.18746948 290.75839233 C1437.03427949 290.81136197 1425.05323353 291.35672305 1413 293 C1411.82606689 293.15275391 1411.82606689 293.15275391 1410.62841797 293.30859375 C1357.01587421 300.42909557 1310.17041866 324.35248982 1269.66455078 359.55712891 C1266.787489 362.05103256 1263.89327262 364.52494025 1261 367 C1261.01047363 366.36723145 1261.02094727 365.73446289 1261.03173828 365.08251953 C1261.89084966 304.95559752 1240.70102454 247.0965821 1202 201 C1201.57283691 200.48405273 1201.14567383 199.96810547 1200.70556641 199.43652344 C1190.17396202 186.73417125 1179.01616432 175.18501504 1166 165 C1164.93221387 164.13190288 1163.86586861 163.2620312 1162.80078125 162.390625 C1136.20825747 140.79886513 1105.62246078 125.99902918 1073 116 C1071.84129395 115.64228516 1071.84129395 115.64228516 1070.65917969 115.27734375 C1056.38548286 110.96132311 1041.77011531 108.85985099 1027 107 C1026.19127441 106.89397461 1025.38254883 106.78794922 1024.54931641 106.67871094 C1016.56068371 105.74321103 1008.53235147 105.75733262 1000.5 105.75 C999.73154755 105.74899292 998.96309509 105.74798584 998.1713562 105.74694824 C983.95314238 105.75946573 970.05590443 106.76399928 956 109 Z " fill="#FE9800" transform="translate(0,0)"/>
<path d="M0 0 C1.34964844 1.16015625 1.34964844 1.16015625 2.7265625 2.34375 C5.19406618 4.52052062 7.60392859 6.74511824 10 9 C10.97646484 9.87978516 10.97646484 9.87978516 11.97265625 10.77734375 C28.82344048 26.59009199 41.01812034 48.81940195 47 71 C47.29132812 72.01835937 47.58265625 73.03671875 47.8828125 74.0859375 C53.58609445 95.18254354 54.03541846 117.73454177 49 139 C48.70996094 140.2684375 48.41992188 141.536875 48.12109375 142.84375 C42.84823857 164.19991657 32.52846679 188.30039754 16.20613807 203.69152021 C11.3788427 208.39997581 10.18787292 211.88394727 10.09643084 218.57050753 C10.11682073 219.6677979 10.13721062 220.76508828 10.15821838 221.89562988 C10.14924692 223.6699776 10.14924692 223.6699776 10.14009422 225.48017073 C10.1305888 228.74648171 10.15233712 232.01082721 10.18754065 235.27690601 C10.21786587 238.80508483 10.20753359 242.33317765 10.20222473 245.8614502 C10.19856023 251.96860783 10.22045896 258.07524061 10.2598896 264.18226624 C10.31686135 273.01182582 10.33501803 281.84113248 10.34380554 290.67085594 C10.35911314 304.99751125 10.40566268 319.32388703 10.47192383 333.65039062 C10.53621029 347.56443893 10.58574288 361.47841122 10.61547852 375.39257812 C10.61731758 376.25073106 10.61915664 377.108884 10.62105144 377.99304157 C10.63018693 382.29828854 10.63903283 386.60353605 10.64773476 390.90878391 C10.72026192 426.60605518 10.84351887 462.30300177 11 498 C12.24959157 496.74764305 12.24959157 496.74764305 13.52442741 495.46998596 C33.28120029 475.66993664 53.04311134 455.87502732 72.81139713 436.08647221 C75.24230408 433.65306373 77.67316745 431.21961172 80.10400391 428.78613281 C80.58795888 428.30165322 81.07191385 427.81717363 81.57053412 427.31801283 C89.41586926 419.46396512 97.25766607 411.60639366 105.0981705 403.7475239 C113.13791586 395.68910318 121.18150301 387.63453508 129.22848427 379.58333874 C133.75050346 375.05870491 138.27072621 370.53230776 142.78680038 366.0017395 C147.03249103 361.74253238 151.28278737 357.4879779 155.53675079 353.23703384 C157.10184877 351.67138303 158.66521762 350.1040016 160.22677231 348.53481674 C162.34974126 346.40197941 164.47869469 344.27530666 166.60934448 342.15014648 C167.23385242 341.51981286 167.85836036 340.88947924 168.50179279 340.24004459 C172.77175758 336 172.77175758 336 175 336 C175.268125 335.401875 175.53625 334.80375 175.8125 334.1875 C176.99917406 332.00152146 178.09599113 330.58667406 180 329 C180.66 329 181.32 329 182 329 C182.37125 328.071875 182.37125 328.071875 182.75 327.125 C184.23740369 324.59641373 185.43678009 324.28160996 188 323 C189.09166275 321.06669397 189.09166275 321.06669397 190 319 C191.5 317.25 191.5 317.25 193 316 C193.66 316 194.32 316 195 316 C195.268125 315.401875 195.53625 314.80375 195.8125 314.1875 C196.99917406 312.00152146 198.09599113 310.58667406 200 309 C200.66 309 201.32 309 202 309 C202.268125 308.401875 202.53625 307.80375 202.8125 307.1875 C203.99917406 305.00152146 205.09599113 303.58667406 207 302 C207.66 302 208.32 302 209 302 C209.268125 301.401875 209.53625 300.80375 209.8125 300.1875 C211 298 211 298 212.52587891 296.70898438 C214.56700336 294.34265924 214.53026964 292.56324902 214.7734375 289.46875 C214.87301758 288.35733643 214.97259766 287.24592285 215.07519531 286.10083008 C215.17413086 284.91255615 215.27306641 283.72428223 215.375 282.5 C217.1227523 264.70566743 221.10758382 249.03745487 229 233 C229.47010498 232.03320312 229.47010498 232.03320312 229.94970703 231.046875 C236.88830783 216.93685812 246.21036138 205.3396352 257 194 C257.64324219 193.29230469 258.28648438 192.58460938 258.94921875 191.85546875 C282.14337774 167.15192848 317.88637155 154.0038697 351.1953125 152.74609375 C390.7643676 151.9474104 426.60112957 165.87307036 455.6015625 192.66796875 C479.77590518 216.17298924 496.70688696 248.70196956 498.16113281 282.77539062 C498.19891689 286.26734241 498.23111256 289.75884092 498.24023438 293.25097656 C498.24985754 295.4671911 498.28091344 297.68244283 498.3125 299.8984375 C498.4144798 313.46675554 496.36879522 326.29922364 492 339.1875 C491.70730225 340.05552246 491.41460449 340.92354492 491.11303711 341.81787109 C486.03839523 356.17130543 478.71364368 370.2413787 469 382 C468.55543457 382.5470459 468.11086914 383.0940918 467.65283203 383.65771484 C457.4909235 396.1147955 446.2896827 406.00122916 433 415 C432.19175781 415.55558594 431.38351562 416.11117188 430.55078125 416.68359375 C412.79769669 428.11620842 391.68314439 433.77107766 370.97265625 436.421875 C370.1984848 436.52291883 369.42431335 436.62396265 368.62668216 436.72806841 C366 437 366 437 363.64010346 437.00004238 C355.86148246 437.15245205 352.33843401 440.39843686 347.09078979 445.82691956 C346.25328442 446.65673511 345.41577904 447.48655066 344.55289471 448.34151214 C342.24426077 450.63792263 339.95687658 452.95327987 337.67711687 455.27829254 C335.20963417 457.7847569 332.71607327 460.26504187 330.22563171 462.74865723 C325.91822242 467.05135455 321.62755717 471.37018062 317.34792709 475.7005024 C311.16038372 481.96128835 304.94804257 488.19697997 298.72943129 494.42689013 C288.64013993 504.5358637 278.57109748 514.66475847 268.51464844 524.80639648 C258.74755141 534.6561448 248.97101637 544.49636598 239.18164062 554.32397461 C238.57790776 554.93007199 237.97417489 555.53616937 237.35214709 556.16063333 C234.3232422 559.20128383 231.29415084 562.2417485 228.26496673 565.28212082 C203.14766849 590.49267147 178.06317244 615.73564366 153 641 C189.69766418 641.16020825 226.3952757 641.28356052 263.09321881 641.35745731 C267.42534631 641.36621229 271.75747313 641.37527255 276.08959961 641.38452148 C276.95205111 641.38635766 277.8145026 641.38819383 278.70308899 641.39008565 C292.66939752 641.42054819 306.63550443 641.47574195 320.60169334 641.54006957 C334.93140181 641.60552128 349.26100467 641.64440954 363.59085649 641.65861946 C372.43387512 641.66822631 381.27632392 641.6985718 390.11916714 641.75541527 C396.18236147 641.79240616 402.24526104 641.80360329 408.30856002 641.79450964 C411.8074535 641.79002406 415.30535107 641.79691696 418.80406761 641.83443832 C422.59906341 641.86920355 426.39160979 641.86091792 430.18666077 641.84178162 C431.84280202 641.87236645 431.84280202 641.87236645 433.53240067 641.90356916 C438.92244159 641.82996542 442.11633935 641.5283894 446.02129269 637.62292576 C447.01617202 636.41691192 448.00916206 635.20933636 449 634 C451.2672545 632.06243988 453.64421799 630.30664914 456.0625 628.5625 C456.7124292 628.09223389 457.3623584 627.62196777 458.03198242 627.13745117 C474.29472528 615.56061678 492.36093253 606.81666629 512 603 C512.72767578 602.85191895 513.45535156 602.70383789 514.20507812 602.55126953 C526.82572852 600.03957625 539.15489753 599.39963959 552 600 C552.68594238 600.0319043 553.37188477 600.06380859 554.07861328 600.09667969 C591.07647635 602.29234288 623.91110189 621.42840012 648.75 647.9375 C672.17787885 674.82825876 683 706.64494891 683 742 C172.49 742 -338.02 742 -864 742 C-861.95640812 699.0845705 -847.67951223 664.2772852 -815.96875 634.75292969 C-810.65833103 630.02465486 -804.92452339 625.91763957 -799 622 C-798.02933594 621.35675781 -797.05867188 620.71351563 -796.05859375 620.05078125 C-767.09783426 602.12652816 -729.47407124 594.96477147 -696 602 C-672.85304919 607.46721063 -646.73519289 616.39339213 -629.94371235 634.1778931 C-624.55614874 639.65604032 -620.86946068 642.0269046 -613.14515674 642.16173178 C-611.50212328 642.12240842 -611.50212328 642.12240842 -609.82589722 642.08229065 C-608.63720634 642.08998047 -607.44851546 642.0976703 -606.22380364 642.10559314 C-602.95012592 642.11778961 -599.67971211 642.0899325 -596.40641975 642.04459059 C-592.86737288 642.00552197 -589.32846289 642.01889081 -585.78926086 642.02571106 C-579.66617155 642.03041772 -573.54394902 642.0023147 -567.42107773 641.95157051 C-558.56872204 641.87825329 -549.71678312 641.85497008 -540.86415674 641.84367859 C-526.49969535 641.82400783 -512.1356954 641.76418734 -497.77148438 641.67895508 C-483.82261454 641.59627366 -469.87387028 641.5326025 -455.92480469 641.49438477 C-455.0641902 641.49202025 -454.20357571 641.48965574 -453.316882 641.48721958 C-448.99919254 641.47547377 -444.68150219 641.46410051 -440.36381125 641.45291245 C-404.57554532 641.35969586 -368.78781532 641.20125164 -333 641 C-358.3501285 615.12232002 -383.7614293 589.30629221 -409.2553023 563.57019512 C-412.2715546 560.52517988 -415.28730083 557.47966391 -418.30273438 554.43383789 C-418.9030091 553.82753002 -419.50328383 553.22122216 -420.1217487 552.59654132 C-429.81398254 542.80448674 -439.46474089 532.97253274 -449.10052513 523.12496056 C-459.00398071 513.00568485 -468.95135131 502.93114399 -478.94000924 492.89595538 C-485.09246128 486.71209189 -491.20897685 480.49674751 -497.28254636 474.23537491 C-501.46257835 469.93284836 -505.68490795 465.67488938 -509.94143181 461.44803651 C-512.38945895 459.01460943 -514.81593551 456.5673555 -517.19344902 454.06482506 C-529.33353077 441.38325368 -538.38014424 435.67565742 -556.20469856 435.15394306 C-557.19101839 435.13967891 -558.17733822 435.12541476 -559.19354653 435.11071837 C-591.59297693 433.8325172 -622.50027766 411.36452666 -644 388.9375 C-654.7191994 376.82239199 -662.86339116 362.91915029 -669 348 C-669.42104004 346.99018066 -669.42104004 346.99018066 -669.85058594 345.95996094 C-683.09207339 313.53469308 -682.94006175 275.4598618 -669.79003906 243.01464844 C-664.67050884 231.23401941 -658.93623953 220.13836725 -651 210 C-650.29488281 209.07574219 -649.58976563 208.15148437 -648.86328125 207.19921875 C-627.47934287 180.0565896 -597.64763683 162.35231139 -564 155 C-562.37771484 154.63068359 -562.37771484 154.63068359 -560.72265625 154.25390625 C-526.13860454 147.66430376 -488.00782107 157.10299327 -458.85546875 176.04296875 C-456.17687909 177.96281627 -453.57864544 179.9481746 -451 182 C-449.63294922 183.06347656 -449.63294922 183.06347656 -448.23828125 184.1484375 C-419.07710028 207.3309663 -400.18994579 241.34691474 -395.359375 278.30078125 C-395 282 -395 282 -395.19165039 284.82885742 C-395.34954338 291.38463379 -394.28660825 295.37881377 -389.91311646 300.17253113 C-387.00561813 303.10727631 -383.99345985 305.90874092 -380.9375 308.6875 C-379.08292792 310.42719771 -377.23687202 312.17543095 -375.39393616 313.92744446 C-374.25073523 315.00840571 -373.09910594 316.08053619 -371.9384613 317.14274597 C-370.58939364 318.39041197 -369.28936023 319.69072379 -368 321 C-368 321.66 -368 322.32 -368 323 C-367.38125 323.2475 -366.7625 323.495 -366.125 323.75 C-363.59641373 325.23740369 -363.28160996 326.43678009 -362 329 C-360.06669397 330.09166275 -360.06669397 330.09166275 -358 331 C-356.25 332.5 -356.25 332.5 -355 334 C-355 334.66 -355 335.32 -355 336 C-354.01 336.33 -353.02 336.66 -352 337 C-350.70071316 338.31873322 -350.70071316 338.31873322 -349.24571228 340.12219238 C-343.26985158 347.15354977 -336.59730757 353.53321971 -330.06860352 360.04492188 C-328.55013398 361.56310903 -327.03188522 363.08151703 -325.51383972 364.60012817 C-321.40918285 368.70507103 -317.30145804 372.80693125 -313.1931622 376.90823174 C-308.89390142 381.20122586 -304.59748714 385.49706685 -300.30076599 389.79260254 C-292.17149787 397.9187671 -284.03968478 406.04237995 -275.90694708 414.16507196 C-266.64500572 423.41582188 -257.38591603 432.66942379 -248.12706101 441.9232626 C-229.08787158 460.95200971 -210.04511604 479.97718472 -191 499 C-190.77098485 462.37049519 -190.5948397 425.74111616 -190.48934671 389.11104251 C-190.47684002 384.78406949 -190.46389676 380.45709787 -190.45068359 376.13012695 C-190.44806049 375.2687247 -190.44543739 374.40732244 -190.44273479 373.51981709 C-190.39925134 359.58196447 -190.3204226 345.64452536 -190.22847204 331.70691784 C-190.13487274 317.39980353 -190.07939464 303.0929054 -190.05911505 288.78549749 C-190.04541068 279.96065497 -190.00217044 271.13698132 -189.92083533 262.31249873 C-189.86787088 256.25668521 -189.85202199 250.20147367 -189.86498623 244.14544549 C-189.87137633 240.65374734 -189.8617639 237.16408747 -189.80794525 233.67275429 C-188.83819754 218.15669967 -188.83819754 218.15669967 -194.51950228 204.36213332 C-196.52234467 202.35085198 -198.71059413 200.67143818 -201 199 C-226.32669406 170.40292007 -233.98095352 131.00177714 -232 94 C-228.9772268 62.96723394 -214.41120641 34.32381521 -193 12 C-192.13117187 11.05640625 -191.26234375 10.1128125 -190.3671875 9.140625 C-141.71366353 -42.64720308 -53.53482763 -46.18691012 0 0 Z " fill="#FEFEFE" transform="translate(1090,258)"/>
<path d="M0 0 C88.46572452 -0.05141362 176.93145085 -0.09911273 265.39718628 -0.12702942 C266.70630939 -0.12744359 268.01543251 -0.12785776 269.36422602 -0.12828448 C297.12147941 -0.13704435 324.87873295 -0.14520292 352.63598673 -0.15263903 C366.57966359 -0.15637518 380.52334041 -0.1602301 394.46701721 -0.16419732 C396.57034993 -0.16479507 398.67368265 -0.16538943 400.77701536 -0.16598364 C433.16002123 -0.17516207 465.54302372 -0.18688564 497.92602539 -0.20599365 C498.62212963 -0.20640435 499.31823386 -0.20681505 500.03543217 -0.20723819 C511.25847835 -0.21387519 522.4815244 -0.22072606 533.70457044 -0.22760532 C566.03591484 -0.24741984 598.36725663 -0.26564923 630.69860649 -0.27341938 C631.3636753 -0.27357999 632.0287441 -0.27374059 632.71396651 -0.27390606 C646.65923205 -0.27724654 660.60449767 -0.27990887 674.5497635 -0.28174497 C681.08065976 -0.28260945 687.611556 -0.28358636 694.14245224 -0.28463173 C695.42783826 -0.284834 696.71322429 -0.28503627 698.03756141 -0.28524467 C718.73661039 -0.28879112 739.43564006 -0.30270883 760.13468116 -0.3204961 C780.93942027 -0.3381532 801.74414021 -0.34490509 822.54888655 -0.34050413 C834.91242548 -0.33822079 847.27589432 -0.3443201 859.6394206 -0.36239263 C867.89847348 -0.37364154 876.15748045 -0.37399147 884.41653649 -0.36549544 C889.12228935 -0.3609662 893.82790962 -0.36116039 898.53364827 -0.37464955 C902.81997798 -0.38684293 907.10607238 -0.38505831 911.39239872 -0.37241993 C912.92830999 -0.37028829 914.46423885 -0.37311889 916.00012759 -0.38170573 C925.73742828 -0.43266575 934.55722886 0.56182795 944 3 C944 3.66 944 4.32 944 5 C942.87207031 5.15855469 941.74414062 5.31710938 940.58203125 5.48046875 C874.51352918 15.11797766 812.88102302 45.22519971 762 88 C760.9493553 88.86344743 759.89856705 89.72672021 758.84765625 90.58984375 C751.75033038 96.48211894 745.08865756 102.73053388 738.5625 109.25 C737.81734131 109.99435303 737.07218262 110.73870605 736.30444336 111.50561523 C731.67547492 116.18133568 727.28303591 121.00721903 723 126 C722.13117187 126.98742187 721.26234375 127.97484375 720.3671875 128.9921875 C704.43111856 147.42607289 691.10675766 167.90190441 679 189 C678.39865234 190.04607422 678.39865234 190.04607422 677.78515625 191.11328125 C675.51276094 195.06948423 673.25137861 199.03178799 671 203 C665.07590648 202.35607679 659.671719 200.79261023 654 199 C640.80697344 194.89518895 627.54953712 192.02629084 613.9375 189.75 C613.20420471 189.62539398 612.47090942 189.50078796 611.71539307 189.37240601 C592.20531084 186.08655195 572.84242175 184.61170017 553.0625 184.6875 C551.6040567 184.68973572 551.6040567 184.68973572 550.1161499 184.6920166 C463.31420154 184.92963097 380.36183356 216.21074874 314 272 C312.9493553 272.86344743 311.89856705 273.72672021 310.84765625 274.58984375 C303.75033038 280.48211894 297.08865756 286.73053388 290.5625 293.25 C289.81734131 293.99435303 289.07218262 294.73870605 288.30444336 295.50561523 C283.67547492 300.18133568 279.28303591 305.00721903 275 310 C274.13117188 310.98742187 273.26234375 311.97484375 272.3671875 312.9921875 C215.07019241 379.26990283 184.67011095 465.77879881 184.8125 553 C184.81376892 553.80902771 184.81503784 554.61805542 184.81634521 555.45159912 C184.92372784 591.58984651 189.37825497 629.93380363 202.1796875 663.96875 C203.07960589 667.29416272 203.09111372 668.7656952 202 672 C200.01660156 673.53881836 200.01660156 673.53881836 197.390625 674.83984375 C196.41867188 675.33814697 195.44671875 675.8364502 194.4453125 676.34985352 C193.39085937 676.87377686 192.33640625 677.3977002 191.25 677.9375 C169.14390137 689.41097407 149.04024961 703.99318987 130 720 C128.9493553 720.86344743 127.89856705 721.72672021 126.84765625 722.58984375 C119.75033038 728.48211894 113.08865756 734.73053388 106.5625 741.25 C105.81734131 741.99435303 105.07218262 742.73870605 104.30444336 743.50561523 C99.67547492 748.18133568 95.28303591 753.00721903 91 758 C90.13117188 758.98742187 89.26234375 759.97484375 88.3671875 760.9921875 C45.28068995 810.83205457 11.62035545 877.99116182 5 944 C4.34 944 3.68 944 3 944 C0.49363255 933.45552058 -0.42988397 923.47788386 -0.36914349 912.64574528 C-0.37136795 911.04391794 -0.37490959 909.44209199 -0.37963298 907.84027007 C-0.38877094 903.46259877 -0.37937299 899.08513908 -0.36679858 894.70748368 C-0.35643933 889.93601502 -0.3636191 885.16456646 -0.36853105 880.39309353 C-0.37473666 872.03875849 -0.36984766 863.6844877 -0.35761642 855.33016014 C-0.33947981 842.90767445 -0.33861194 830.48522911 -0.34124239 818.06273259 C-0.34518051 797.16415507 -0.33517347 776.26560605 -0.31719017 755.36703682 C-0.2994328 734.67794211 -0.28789106 713.98885928 -0.28463173 693.299757 C-0.28442551 692.01287194 -0.28421929 690.72598688 -0.28400682 689.4001053 C-0.28299181 682.86453796 -0.28208766 676.32897062 -0.2812262 669.79340326 C-0.27941736 656.50491006 -0.27663209 643.21641708 -0.27341938 629.92792416 C-0.27325943 629.26313732 -0.27309948 628.59835049 -0.27293468 627.9134186 C-0.26507472 595.59453702 -0.24615394 563.27566318 -0.22631836 530.95678711 C-0.21944323 519.74483242 -0.21261707 508.5328777 -0.20599365 497.32092285 C-0.2055828 496.62553324 -0.20517196 495.93014362 -0.20474866 495.2136816 C-0.18570779 462.8719486 -0.17453686 430.53021427 -0.16538927 398.18847714 C-0.16479508 396.08819515 -0.1641975 393.98791317 -0.16359923 391.88763118 C-0.1596398 377.96866698 -0.15581587 364.04970275 -0.15208265 350.13073848 C-0.14447659 321.77676956 -0.13601047 293.42280092 -0.12702942 265.0688324 C-0.12661755 263.76519254 -0.12620568 262.46155268 -0.12578133 261.11840858 C-0.09818418 174.07893261 -0.05064914 87.03946523 0 0 Z " fill="#FFB03A" transform="translate(0,0)"/>
<path d="M0 0 C0.62326172 0.21205078 1.24652344 0.42410156 1.88867188 0.64257812 C25.92496517 8.88429589 48.17479204 21.10660703 68 37 C68.98484375 37.78117187 69.9696875 38.56234375 70.984375 39.3671875 C85.55615484 51.17298525 99.15999971 64.66720403 110 80 C110.54076172 80.76119141 111.08152344 81.52238281 111.63867188 82.30664062 C138.78733151 120.89587255 154 163.71869057 154 211 C112.09 211 70.18 211 27 211 C26.34 205.39 25.68 199.78 25 194 C24.22314893 190.7886857 23.48561624 187.93369107 22.375 184.875 C22.11557617 184.13548096 21.85615234 183.39596191 21.58886719 182.6340332 C12.10007707 156.61791153 -6.40722303 136.39872755 -31.4296875 124.53125 C-56.01649959 113.98635904 -84.43642005 111.90615028 -109.625 121.75 C-121.4363345 126.65544604 -131.3528408 132.61463811 -141 141 C-142.0608023 141.81471528 -143.12297268 142.62765798 -144.1875 143.4375 C-160.82161068 158.59302306 -172.3313446 182.64080715 -174 205 C-174.14433445 209.79176221 -174.1438757 214.58238026 -174.14044189 219.37586975 C-174.14302944 220.82828949 -174.14604368 222.28070852 -174.1494453 223.73312658 C-174.15747275 227.70666178 -174.15930248 231.68017887 -174.16004276 235.65372121 C-174.16190076 239.94634758 -174.16945179 244.23896471 -174.17617798 248.53158569 C-174.18973137 257.90992584 -174.19578129 267.28826169 -174.20018864 276.66661 C-174.20295603 282.52811666 -174.20719428 288.38962169 -174.21169281 294.25112724 C-174.22388138 310.49629773 -174.23418163 326.74146692 -174.2375679 342.98664188 C-174.23778747 344.02536757 -174.23800703 345.06409326 -174.23823325 346.13429549 C-174.23845153 347.17543188 -174.23866981 348.21656827 -174.2388947 349.28925425 C-174.23933816 351.39880947 -174.23978472 353.5083647 -174.24023438 355.61791992 C-174.2404558 356.66432046 -174.24067723 357.71072099 -174.24090537 358.78883063 C-174.24485157 375.73593493 -174.262302 392.68299619 -174.2855939 409.63008387 C-174.30934238 427.05071893 -174.32177134 444.47133242 -174.32293582 461.89198393 C-174.32385059 471.66442838 -174.32955304 481.43681674 -174.34775543 491.20924568 C-174.36320365 499.53202874 -174.36824912 507.85473835 -174.36001733 516.17753304 C-174.35612754 520.41851616 -174.35695806 524.65935157 -174.37107468 528.90031624 C-174.38391454 532.79355309 -174.38252893 536.68653278 -174.37048396 540.57976978 C-174.36854426 541.97749066 -174.37152404 543.37523041 -174.38032833 544.77292491 C-174.52976892 570.13155457 -166.58244391 593.65956127 -150 613 C-149.55527344 613.58910156 -149.11054687 614.17820312 -148.65234375 614.78515625 C-135.10509306 632.30958145 -111.39697427 643.53217249 -89.8046875 646.5234375 C-61.03021193 649.7396241 -33.96813894 643.97506526 -11 626 C10.41575364 608.39216842 23.38958801 584.42303367 27 557 C27.2642881 553.11618559 27.31047494 549.24841309 27.31884766 545.35644531 C27.32889328 544.26229309 27.3389389 543.16814087 27.34928894 542.04083252 C27.37986663 538.46993475 27.39708481 534.89911104 27.4140625 531.328125 C27.43279462 528.8342018 27.45236953 526.3402848 27.4727478 523.84637451 C27.52385897 517.31664706 27.56359672 510.78689911 27.60089111 504.25708008 C27.64691743 496.40403834 27.70964657 488.55110224 27.76873779 480.69815063 C27.85669351 468.79880794 27.92664174 456.89948194 28 445 C-4.01 445 -36.02 445 -69 445 C-69 403.09 -69 361.18 -69 318 C4.92 318 78.84 318 155 318 C155.08060607 377.71118425 155.08060607 377.71118425 155.09765625 402.7890625 C155.10157138 408.5185548 155.10561217 414.248047 155.10986328 419.97753906 C155.11039078 420.69553492 155.11091828 421.41353077 155.11146176 422.15328407 C155.12013581 433.71098438 155.13588976 445.26866458 155.15430559 456.826353 C155.17307729 468.70738904 155.18413201 480.58841463 155.18817699 492.4694649 C155.19066345 499.13454003 155.19684413 505.79957867 155.21146011 512.46464157 C155.22513099 518.75021576 155.22920358 525.03572621 155.22621536 531.32131386 C155.2267613 533.6164885 155.23068167 535.91166548 155.23841095 538.20682716 C155.28028164 551.29243688 154.79406474 564.0321268 153 577 C152.85672335 578.07856955 152.71344669 579.15713909 152.56582832 580.26839256 C146.88289772 622.00846639 128.5392884 662.16238347 101 694 C100.34128906 694.76957031 99.68257812 695.53914063 99.00390625 696.33203125 C60.10803982 740.66890735 5.26082424 770.21010029 -54 774.75 C-56.66987304 774.86227158 -59.32926076 774.94814677 -62 775 C-62.83934082 775.02046387 -63.67868164 775.04092773 -64.54345703 775.06201172 C-84.21638292 775.48595188 -103.80581081 774.56531904 -123 770 C-124.54030977 769.65860675 -126.0806779 769.31747679 -127.62109375 768.9765625 C-146.07610402 764.76077515 -163.34766517 757.95455741 -180 749 C-180.64743164 748.65888184 -181.29486328 748.31776367 -181.96191406 747.96630859 C-198.46494297 739.24351119 -213.11191491 728.42550812 -227 716 C-228.02174625 715.10111994 -229.04387024 714.20266904 -230.06640625 713.3046875 C-235.47532542 708.4918533 -240.36308621 703.54861143 -245 698 C-245.78503906 697.12601563 -246.57007813 696.25203125 -247.37890625 695.3515625 C-268.31629796 671.85446362 -282.25763429 643.70521555 -292 614 C-292.64195313 612.14181641 -292.64195313 612.14181641 -293.296875 610.24609375 C-295.36011747 604.03255971 -296.79492426 597.71559356 -298.125 591.3125 C-298.28395752 590.55928467 -298.44291504 589.80606934 -298.60668945 589.0300293 C-302.45071924 569.51029298 -302.30222914 549.97427057 -302.29076743 530.18013382 C-302.29035527 525.73000117 -302.30143605 521.27989358 -302.31088257 516.82977295 C-302.32740805 508.13258861 -302.33298827 499.43543141 -302.33410732 490.73823267 C-302.33506185 483.65936213 -302.33919218 476.58050043 -302.34550858 469.50163269 C-302.36309803 449.37547165 -302.37235106 429.24933183 -302.37084763 409.12316304 C-302.37076772 408.04095674 -302.3706878 406.95875044 -302.37060547 405.84375 C-302.37052371 404.76020286 -302.37044195 403.67665573 -302.37035771 402.56027383 C-302.36954549 385.01586007 -302.38867291 367.4715323 -302.4168822 349.92714339 C-302.44570376 331.85754362 -302.45941741 313.78798565 -302.45769465 295.71836233 C-302.45703393 285.59584 -302.46238541 275.47340783 -302.48405075 265.35090637 C-302.50238513 256.730336 -302.50651042 248.10989665 -302.4930319 239.48931509 C-302.4865634 235.10320011 -302.48615917 230.71733557 -302.5037384 226.33124542 C-302.71569784 169.83255093 -288.00792482 115.91451584 -251 72 C-250.51144531 71.41138184 -250.02289062 70.82276367 -249.51953125 70.21630859 C-240.41793904 59.25754702 -230.91022879 49.10607869 -219.65771484 40.29833984 C-218.46695549 39.36572449 -217.28024787 38.4279272 -216.09619141 37.48681641 C-206.46847531 29.84485985 -196.73563234 22.98505992 -186 17 C-185.36191406 16.63455078 -184.72382812 16.26910156 -184.06640625 15.89257812 C-128.83952247 -15.65782973 -59.83331879 -20.77893498 0 0 Z " fill="#FEFEFE" transform="translate(1539,1077)"/>
<path d="M0 0 C0.77134277 0.1232666 1.54268555 0.2465332 2.33740234 0.37353516 C33.41204484 5.37089962 64.42959227 18.76989307 90 37 C90.67853027 37.47937012 91.35706055 37.95874023 92.05615234 38.45263672 C101.69409275 45.31296839 110.51985308 52.76330228 119 61 C119.57492187 61.54914063 120.14984375 62.09828125 120.7421875 62.6640625 C129.32212837 70.86933346 136.9884953 79.4187179 144 89 C144.76828125 90.04671875 145.5365625 91.0934375 146.328125 92.171875 C167.34367145 121.71120953 181.96770452 155.85181615 186.875 191.875 C186.99520508 192.7402832 187.11541016 193.60556641 187.23925781 194.49707031 C188.27647213 203.11269263 188 211.14478881 188 220 C146.42 220 104.84 220 62 220 C60.515 211.585 60.515 211.585 59 203 C53.13780408 177.27262429 38.04276988 154.96493441 15.86230469 140.45239258 C8.93581448 136.13612709 1.58602299 132.96160985 -6 130 C-6.84175781 129.66226562 -7.68351562 129.32453125 -8.55078125 128.9765625 C-30.95623154 120.70252053 -59.71082768 123.30845355 -81.14453125 132.96630859 C-90.72726086 137.52150933 -99.19467363 142.74302989 -107 150 C-107.73210693 150.66273926 -107.73210693 150.66273926 -108.47900391 151.33886719 C-126.76726799 167.99828747 -138.93220709 191.71034651 -140.12451172 216.59912109 C-140.95008257 245.09413497 -134.97234381 270.54461799 -115.4375 292.25 C-114.77621094 292.93578125 -114.11492187 293.6215625 -113.43359375 294.328125 C-112 296 -112 296 -112 298 C-111.40832031 298.26683594 -110.81664062 298.53367187 -110.20703125 298.80859375 C-107.96195625 300.02053689 -106.50944147 301.29081898 -104.6875 303.0625 C-86.04077548 319.63736624 -61.30523946 326.22053155 -36.90737915 326.92608643 C27.65116473 328.90822236 84.78349285 354.69263606 129.39160156 401.28222656 C133.18403692 405.33255674 136.64567934 409.58387999 140 414 C140.42732422 414.55623047 140.85464844 415.11246094 141.29492188 415.68554688 C147.78953225 424.16999533 153.67900831 432.87831102 158.95898438 442.16894531 C159.95431381 443.91964202 160.96890522 445.65934556 161.984375 447.3984375 C175.21765958 470.95368405 182.60707571 496.5053402 187 523 C187.18006592 524.05574219 187.18006592 524.05574219 187.36376953 525.1328125 C190.85158162 546.34037332 189.69264246 568.26296408 186.40136719 589.40478516 C186.0434647 591.71896002 185.72282185 594.03435676 185.4140625 596.35546875 C179.93213126 634.70591531 161.00130993 672.63740679 136 702 C135.06220703 703.10408203 135.06220703 703.10408203 134.10546875 704.23046875 C131.79059322 706.87287925 129.41483136 709.44937905 127 712 C126.4107373 712.62326172 125.82147461 713.24652344 125.21435547 713.88867188 C115.20890621 724.38309993 104.8082506 733.5937331 93 742 C92.12504883 742.64195312 92.12504883 742.64195312 91.23242188 743.296875 C45.14224373 777.05005297 -16.79585189 790.7864417 -73.125 782.4375 C-99.57688302 778.12630887 -124.40883078 769.62042873 -148 757 C-149.15628906 756.38640625 -150.31257813 755.7728125 -151.50390625 755.140625 C-166.63289981 746.81021216 -180.15633403 736.49107849 -193 725 C-194.02174625 724.10111994 -195.04387024 723.20266904 -196.06640625 722.3046875 C-201.47532542 717.4918533 -206.36308621 712.54861143 -211 707 C-211.78503906 706.12601563 -212.57007813 705.25203125 -213.37890625 704.3515625 C-234.26245078 680.91489389 -248.42686922 652.70219455 -258 623 C-258.3417627 621.9675415 -258.68352539 620.93508301 -259.03564453 619.87133789 C-261.57621661 611.97788674 -263.33637096 604.10365269 -264.75 595.9375 C-264.97042969 594.78056641 -265.19085938 593.62363281 -265.41796875 592.43164062 C-267.3187884 581.57571722 -267 572.47259535 -267 561 C-225.42 561 -183.84 561 -141 561 C-139.515 570.405 -139.515 570.405 -138 580 C-137.03384665 583.45613842 -136.12888128 586.53356942 -134.8125 589.8125 C-134.51206787 590.59036865 -134.21163574 591.3682373 -133.90209961 592.16967773 C-129.35151935 603.56895739 -123.20793196 613.83250765 -115 623 C-113.80117188 624.33998047 -113.80117188 624.33998047 -112.578125 625.70703125 C-94.29445168 645.04553187 -69.42089437 655.73468175 -42.91235352 656.59179688 C-14.55277879 656.86277995 10.73120129 647.44678908 31.25390625 627.70703125 C32.16011719 626.81371094 33.06632812 625.92039062 34 625 C35.09634766 623.92298828 35.09634766 623.92298828 36.21484375 622.82421875 C46.45547426 612.05634785 52.34220482 598.91229969 57 585 C57.34160156 584.08347656 57.68320312 583.16695312 58.03515625 582.22265625 C60.65723851 573.46468917 61.36112495 564.85766381 61.3125 555.75 C61.30758545 554.65461914 61.3026709 553.55923828 61.29760742 552.43066406 C61.10462999 539.03110312 58.41190707 527.30399386 53 515 C52.55785156 513.99195313 52.11570312 512.98390625 51.66015625 511.9453125 C40.17759972 487.45343293 19.12472263 469.48458601 -6.07421875 460.31640625 C-19.49025666 455.71729079 -32.10261305 454.70774454 -46.26220703 454.42138672 C-99.80816172 453.0945725 -151.69696757 432.28155779 -191.45800781 396.390625 C-192.97944203 395.01853993 -194.51514021 393.66420066 -196.0546875 392.3125 C-201.46978403 387.49908087 -206.35998042 382.55232787 -211 377 C-211.78503906 376.12601563 -212.57007813 375.25203125 -213.37890625 374.3515625 C-234.2650298 350.91199958 -248.41883148 322.70235812 -258 293 C-258.34248779 291.97261719 -258.68497559 290.94523437 -259.0378418 289.88671875 C-261.63943441 281.84687562 -263.31374845 273.83085347 -264.6875 265.5 C-264.89955078 264.28441406 -265.11160156 263.06882812 -265.33007812 261.81640625 C-270.52520439 231.10452414 -269.75958637 197.00203298 -261 167 C-260.71946777 166.03126953 -260.43893555 165.06253906 -260.14990234 164.06445312 C-249.65958776 128.69803045 -232.42106187 97.13668035 -207.1171875 70.328125 C-204.98381576 68.19338681 -204.98381576 68.19338681 -204 66 C-203.34 66 -202.68 66 -202 66 C-201.75507813 65.42121094 -201.51015625 64.84242187 -201.2578125 64.24609375 C-198.64603609 59.5822073 -194.02737374 56.42780983 -190 53 C-189.42942871 52.50790039 -188.85885742 52.01580078 -188.27099609 51.50878906 C-177.82629605 42.54499128 -166.81886755 35.03188233 -155 28 C-154.27619141 27.56059082 -153.55238281 27.12118164 -152.80664062 26.66845703 C-134.26147771 15.46585519 -114.09987843 7.76956809 -93 3 C-91.84242188 2.71769531 -90.68484375 2.43539063 -89.4921875 2.14453125 C-86.00671092 1.33290136 -82.52031598 0.6443598 -79 0 C-78.27699707 -0.13680176 -77.55399414 -0.27360352 -76.80908203 -0.41455078 C-51.66377592 -5.01423866 -25.11238294 -4.45135885 0 0 Z " fill="#FEFEFE" transform="translate(571,1068)"/>
<path d="M0 0 C41.91 0 83.82 0 127 0 C134 34 134 34 136.9375 48.3125 C139.42840981 60.36636652 142.03275437 72.39321452 144.65197754 84.41967773 C146.7748031 94.17960083 148.8206209 103.94221744 150.64208984 113.76367188 C153.14261141 127.2343115 156.04285854 140.62544738 158.95703125 154.01171875 C159.65897911 157.236952 160.36087065 160.46219744 161.0625 163.6875 C161.23790314 164.49367767 161.41330627 165.29985535 161.59402466 166.13046265 C163.73549633 175.98638802 165.80262319 185.84488112 167.6418457 195.76245117 C170.14253827 209.23348443 173.04276932 222.62503754 175.95703125 236.01171875 C176.65897911 239.236952 177.36087065 242.46219744 178.0625 245.6875 C178.23790314 246.49367767 178.41330627 247.29985535 178.59402466 248.13046265 C180.73549633 257.98638802 182.80262319 267.84488112 184.6418457 277.76245117 C187.14253827 291.23348443 190.04276932 304.62503754 192.95703125 318.01171875 C193.65897911 321.236952 194.36087065 324.46219744 195.0625 327.6875 C195.23790314 328.49367767 195.41330627 329.29985535 195.59402466 330.13046265 C197.73549633 339.98638802 199.80262319 349.84488112 201.6418457 359.76245117 C204.14253862 373.2334863 207.04280884 386.62502749 209.95703125 400.01171875 C210.48205818 402.4243623 211.00708305 404.83700629 211.53204346 407.24966431 C211.88489089 408.87125629 212.23787693 410.49281813 212.59100342 412.11434937 C214.80397699 422.28832839 216.95586933 432.46455564 218.80883789 442.71166992 C219.45833494 446.28804441 220.18110281 449.80469739 221.09375 453.32421875 C221.93262992 456.72674465 222.17408725 459.51825495 222 463 C225.63 463 229.26 463 233 463 C232.95488281 462.04867188 232.90976562 461.09734375 232.86328125 460.1171875 C232.86933708 455.27979214 234.04170429 450.80082342 235.1875 446.125 C237.07927143 438.10803769 238.84157796 430.08117473 240.4375 422 C240.64076904 420.97293945 240.84403809 419.94587891 241.0534668 418.88769531 C241.47904394 416.73161367 241.90374555 414.57535906 242.32763672 412.41894531 C245.46256673 396.47792866 248.61400731 380.54447525 252.10766602 364.67773438 C254.59015498 353.37989654 256.90396257 342.04737343 259.23388672 330.71728516 C259.98668346 327.06461365 260.74435831 323.41299187 261.50390625 319.76171875 C264.07532832 307.39272568 266.60289562 295.0167436 269.0625 282.625 C270.73360627 274.21022469 272.45076211 265.81214346 274.3125 257.4375 C276.03248582 249.70045939 277.62495493 241.94114162 279.171875 234.16796875 C279.36706223 233.18732956 279.56224945 232.20669037 279.76335144 231.19633484 C280.7482726 226.24055255 281.72809149 221.28380834 282.70239258 216.32592773 C284.52504396 207.09213498 286.43394363 197.89967443 288.6335907 188.74787903 C290.02354379 182.96101312 291.23803411 177.15356149 292.375 171.3125 C292.79942425 169.16535373 293.22390604 167.01821883 293.6484375 164.87109375 C293.97666504 163.20216064 293.97666504 163.20216064 294.31152344 161.49951172 C297.45292311 145.53184402 300.60811292 129.57124511 304.10766602 113.67773438 C306.59015498 102.37989654 308.90396257 91.04737343 311.23388672 79.71728516 C311.98668346 76.06461365 312.74435831 72.41299187 313.50390625 68.76171875 C316.58435559 53.94322388 316.58435559 53.94322388 319.5703125 39.10546875 C319.70097107 38.44652115 319.83162964 37.78757355 319.96624756 37.10865784 C320.58849512 33.96851028 321.20736952 30.82776947 321.8203125 27.68579102 C323.65661513 18.3836401 325.82365989 9.24944549 328 0 C369.58 0 411.16 0 454 0 C452.87494263 10.12551637 452.87494263 10.12551637 452.04785156 14.23071289 C451.86385803 15.15360611 451.6798645 16.07649933 451.49029541 17.02735901 C451.29240417 17.9993071 451.09451294 18.97125519 450.890625 19.97265625 C450.68193787 21.0128038 450.47325073 22.05295135 450.25823975 23.12461853 C449.59243831 26.43798473 448.92122002 29.75022777 448.25 33.0625 C447.81476816 35.22714601 447.37986981 37.3918591 446.9453125 39.55664062 C444.20064472 53.20219774 441.38269196 66.83188209 438.53179932 80.45559692 C437.36648643 86.0310567 436.21508389 91.60939722 435.0625 97.1875 C434.55339011 99.64974055 434.04427539 102.11198011 433.53515625 104.57421875 C433.28137207 105.80188965 433.02758789 107.02956055 432.76611328 108.29443359 C431.51143719 114.36309953 430.25567071 120.4315398 429 126.5 C428.49999462 128.91666555 427.99999462 131.33333222 427.5 133.75 C402.75 253.375 378 373 304.5 728.25 C304.25217773 729.44794189 304.00435547 730.64588379 303.74902344 731.88012695 C303.25249423 734.27974839 302.7557519 736.67932575 302.25878906 739.07885742 C301.09274689 744.71025888 299.92878068 750.34206392 298.77258301 755.97549438 C298.36324105 757.96944926 297.95320879 759.96326097 297.54296875 761.95703125 C297.02857456 764.45805126 296.51547529 766.95933809 296.00390625 769.4609375 C295.77058594 770.59402344 295.53726562 771.72710938 295.296875 772.89453125 C294.99281738 774.37723511 294.99281738 774.37723511 294.68261719 775.88989258 C293.86587105 779.61111182 292.9240113 783.30395482 292 787 C249.43 787 206.86 787 163 787 C159.62962963 774.64197531 159.62962963 774.64197531 158.7890625 770.046875 C158.50397827 768.51873169 158.50397827 768.51873169 158.21313477 766.9597168 C158.01905029 765.90051025 157.82496582 764.84130371 157.625 763.75 C156.0513877 755.36832478 154.40261287 747.01484043 152.5625 738.6875 C148.45069611 720.04894436 144.65537072 701.34568494 140.9375 682.625 C139.26629505 674.21024282 137.5492384 665.81214576 135.6875 657.4375 C133.96751418 649.70045939 132.37504507 641.94114162 130.828125 634.16796875 C130.63293777 633.18732956 130.43775055 632.20669037 130.23664856 631.19633484 C129.2517274 626.24055255 128.27190851 621.28380834 127.29760742 616.32592773 C125.47893551 607.1127882 123.57019786 597.9438305 121.37094116 588.81365967 C119.90484984 582.70012811 118.70031643 576.55657719 117.5625 570.375 C116.07081619 562.45114363 114.50652287 554.55684162 112.75 546.6875 C111.00607753 538.86216996 109.3886428 531.01520035 107.82421875 523.15234375 C107.62927826 522.1726915 107.43433777 521.19303925 107.23348999 520.18370056 C106.24979155 515.23243851 105.27126261 510.28019849 104.29785156 505.3269043 C102.47904472 496.11345121 100.57027616 486.94415556 98.37094116 477.81365967 C96.90485017 471.70012949 95.70029035 465.55658287 94.5625 459.375 C93.00819271 451.11883235 91.37320086 442.89133439 89.5625 434.6875 C85.45119404 416.04882311 81.65537401 397.34570148 77.9375 378.625 C76.26629505 370.21024282 74.5492384 361.81214576 72.6875 353.4375 C70.96751418 345.70045939 69.37504507 337.94114162 67.828125 330.16796875 C67.63293777 329.18732956 67.43775055 328.20669037 67.23664856 327.19633484 C66.2517274 322.24055255 65.27190851 317.28380834 64.29760742 312.32592773 C62.47893551 303.1127882 60.57019786 293.9438305 58.37094116 284.81365967 C56.90485017 278.70012949 55.70029035 272.55658287 54.5625 266.375 C53.00819271 258.11883235 51.37320086 249.89133439 49.5625 241.6875 C45.45119404 223.04882311 41.65537401 204.34570148 37.9375 185.625 C36.26629505 177.21024282 34.5492384 168.81214576 32.6875 160.4375 C30.96751418 152.70045939 29.37504507 144.94114162 27.828125 137.16796875 C27.63293777 136.18732956 27.43775055 135.20669037 27.23664856 134.19633484 C26.2517274 129.24055255 25.27190851 124.28380834 24.29760742 119.32592773 C22.47893551 110.1127882 20.57019786 100.9438305 18.37094116 91.81365967 C16.90485017 85.70012949 15.70029035 79.55658287 14.5625 73.375 C13.00819184 65.11882774 11.37310191 56.8913597 9.5625 48.6875 C7.57156994 39.65678191 5.63750473 30.61537436 3.75 21.5625 C3.49162354 20.3355542 3.23324707 19.1086084 2.96704102 17.84448242 C2.72526123 16.68021729 2.48348145 15.51595215 2.234375 14.31640625 C2.02006836 13.28974854 1.80576172 12.26309082 1.58496094 11.20532227 C0.90771623 7.49432652 0.46789463 3.74315701 0 0 Z " fill="#FEFEFE" transform="translate(771,1065)"/>
<path d="M0 0 C5.44587789 9.60184711 4.28613607 22.3459289 4.24609566 33.06130695 C4.24757787 34.65568575 4.24993814 36.25006393 4.25308865 37.84444031 C4.25919277 42.21071599 4.25290491 46.57689768 4.24453239 50.94316632 C4.23763654 55.69884804 4.24241079 60.45452068 4.24568737 65.2102043 C4.24982762 73.53991441 4.24655963 81.8695959 4.23841095 90.19930267 C4.22632792 102.58521782 4.22574055 114.97111498 4.22749493 127.35703495 C4.23012132 148.19333386 4.22344525 169.02962008 4.21146011 189.8659153 C4.19962444 210.49525833 4.19192789 231.12459608 4.18975449 251.75394249 C4.18961701 253.03680599 4.18947953 254.3196695 4.18933788 255.64140765 C4.18866121 262.15647277 4.18805845 268.6715379 4.18748413 275.18660303 C4.1862782 288.43387672 4.18442133 301.68115031 4.18227959 314.92842388 C4.18217295 315.59116799 4.18206632 316.25391209 4.18195645 316.93673935 C4.17671567 349.1613601 4.16410148 381.3859774 4.15087891 413.6105957 C4.14629551 424.79075111 4.14174475 435.97090653 4.1373291 447.15106201 C4.13691825 448.19117892 4.13691825 448.19117892 4.13649911 449.25230829 C4.12380671 481.49813651 4.1163584 513.74396533 4.11025951 545.98979539 C4.10986338 548.08368314 4.109465 550.17757088 4.10906615 552.27145862 C4.10642655 566.14797188 4.10387726 580.02448515 4.10138843 593.90099844 C4.09631764 622.16883691 4.09067356 650.43667526 4.08468628 678.70451355 C4.0844117 680.00421152 4.08413712 681.3039095 4.08385422 682.64299226 C4.06545414 769.42866438 4.03376389 856.21433267 4 943 C-84.4798389 943.05141186 -172.95967961 943.09911122 -261.43952942 943.12702942 C-262.74879059 943.12744359 -264.05805176 943.12785776 -265.40698752 943.12828448 C-293.16694697 943.13704428 -320.92690657 943.14520286 -348.6868664 943.15263903 C-362.63182752 943.15637519 -376.5767886 943.16023011 -390.52174965 943.16419732 C-392.62528085 943.16479507 -394.72881205 943.16538943 -396.83234324 943.16598364 C-429.21979467 943.17516247 -461.60724271 943.18688677 -493.99468994 943.20599365 C-494.69093108 943.20640435 -495.38717221 943.20681505 -496.10451156 943.20723819 C-507.32982076 943.21387522 -518.55512983 943.22072608 -529.78043888 943.22760532 C-562.11687373 943.24741891 -594.45330597 943.26564862 -626.78974628 943.27341938 C-627.78742979 943.27366029 -627.78742979 943.27366029 -628.80526853 943.27390606 C-642.75140506 943.27724648 -656.69754167 943.27990884 -670.64367849 943.28174497 C-677.17489551 943.28260945 -683.7061125 943.28358636 -690.23732948 943.28463173 C-692.16550965 943.28493513 -692.16550965 943.28493513 -694.13264296 943.28524467 C-714.83560877 943.28879159 -735.53855527 943.30271055 -756.2415132 943.3204961 C-777.04847542 943.33815009 -797.85541848 943.34490587 -818.66238793 943.34050413 C-831.0283589 943.3382202 -843.39425981 943.34432535 -855.76021815 943.36239263 C-864.01961578 943.3736369 -872.2789675 943.37399474 -880.5383683 943.36549544 C-885.24513827 943.36096376 -889.95177567 943.36117036 -894.65853145 943.37464955 C-898.94461349 943.38683068 -903.23046008 943.38507001 -907.5165387 943.37241993 C-909.05348171 943.37028587 -910.59044227 943.37312911 -912.12736284 943.38170573 C-921.44857648 943.43040321 -929.99143867 942.54511038 -939 940 C-938.67 939.34 -938.34 938.68 -938 938 C-935.78540039 937.39331055 -935.78540039 937.39331055 -932.84765625 936.88671875 C-931.7712085 936.69384277 -930.69476074 936.5009668 -929.58569336 936.30224609 C-927.84171265 935.99794678 -927.84171265 935.99794678 -926.0625 935.6875 C-915.14550086 933.66804296 -904.58595299 931.33055779 -894 928 C-892.83114258 927.63664551 -891.66228516 927.27329102 -890.45800781 926.89892578 C-838.37301357 910.62167271 -790.21987346 885.05687576 -750.015625 847.8046875 C-749.35046875 847.20914063 -748.6853125 846.61359375 -748 846 C-747.48727858 845.47554118 -746.97455715 844.95108235 -746.44629872 844.41073084 C-742.68843823 842.24364893 -739.10876551 842.58902412 -734.8435955 842.62361908 C-733.43159277 842.6172424 -733.43159277 842.6172424 -731.99106473 842.61073691 C-728.81265485 842.60006444 -725.63467349 842.61088837 -722.45626831 842.62145996 C-720.16400375 842.61817148 -717.87174076 842.61355951 -715.57948124 842.6077323 C-709.26114704 842.59547276 -702.94294626 842.60190898 -696.62461209 842.61123729 C-690.51575902 842.61878628 -684.40692052 842.60933705 -678.29807164 842.60155214 C-665.7946824 842.58604687 -653.29132573 842.58406971 -640.78792953 842.58930969 C-623.70041222 842.59628924 -606.61294914 842.58366814 -589.52544178 842.56580251 C-581.56427492 842.55750524 -573.60310718 842.55016875 -565.64193916 842.54308319 C-564.84486248 842.54237269 -564.0477858 842.5416622 -563.22655528 842.54093017 C-544.24560327 842.52423467 -525.26464945 842.51695293 -506.28369141 842.51123047 C-505.45305439 842.51097656 -504.62241738 842.51072266 -503.76660954 842.51046105 C-491.13607312 842.50661218 -478.50553659 842.50325243 -465.875 842.5 C-452.43050121 842.49653684 -438.98600251 842.49288977 -425.54150391 842.48876953 C-424.71344195 842.48851924 -423.88538 842.48826896 -423.03222526 842.48801108 C-404.11253419 842.48224161 -385.1928495 842.47377356 -366.27316475 842.45691681 C-365.47698635 842.45620854 -364.68080795 842.45550028 -363.86050293 842.45477055 C-355.90945397 842.44763636 -347.9584056 842.44003384 -340.00735777 842.43173284 C-322.94653561 842.414025 -305.88576498 842.40448349 -288.82493401 842.41165514 C-276.37734912 842.41676206 -263.92980481 842.41156657 -251.4822285 842.39579475 C-244.74390211 842.38758414 -238.00567719 842.38460012 -231.26734543 842.39461708 C-225.0897908 842.40372338 -218.91240382 842.39891832 -212.73486342 842.38340265 C-210.50856841 842.38023111 -208.28225904 842.38204966 -206.05597447 842.38956803 C-189.99540447 842.43990899 -174.05397165 841.71401282 -158.75 836.3125 C-158.01313965 836.05686279 -157.2762793 835.80122559 -156.51708984 835.5378418 C-136.893411 828.42335698 -122.35857277 815.60538543 -113.3125 796.75 C-103.96418916 776.29592662 -102.54414492 754.86533728 -102.64837646 732.69232178 C-102.64794923 730.39164776 -102.64618085 728.09097368 -102.64320111 725.79030156 C-102.63877906 719.51880794 -102.65277899 713.24747399 -102.66987348 706.97600722 C-102.68342024 700.89174555 -102.68265741 694.80750082 -102.68205043 688.72322694 C-102.68121213 677.04921581 -102.69087644 665.37524298 -102.70818968 653.70124554 C-102.73565349 635.18201509 -102.73731965 616.66285225 -102.73104877 598.14360568 C-102.72873835 591.00707989 -102.72723559 583.87055385 -102.72569656 576.73402786 C-102.72543336 575.54507002 -102.72543336 575.54507002 -102.72516484 574.33209282 C-102.7211268 555.49792363 -102.72464427 536.66375816 -102.73095703 517.82958984 C-102.73136073 516.59456853 -102.73136073 516.59456853 -102.73177258 515.33459729 C-102.73814258 496.10641998 -102.74922553 476.87825354 -102.76934814 457.65008545 C-102.77021285 456.82181426 -102.77107756 455.99354308 -102.77196847 455.14017277 C-102.77634449 450.96295818 -102.78076952 446.78574364 -102.78520969 442.60852912 C-102.78652547 441.37001554 -102.78652547 441.37001554 -102.78786783 440.10648148 C-102.78964035 438.43992222 -102.79141773 436.77336297 -102.79319997 435.10680373 C-102.82249022 407.58388717 -102.82821363 380.06104678 -102.8073928 352.53812104 C-102.80448429 348.65385505 -102.80188883 344.76958892 -102.79950714 340.88532257 C-102.79903545 340.12092952 -102.79856376 339.35653647 -102.79807778 338.56898 C-102.79126593 326.26499759 -102.81006392 313.96118052 -102.83898328 301.65723559 C-102.86759939 289.30460501 -102.8714984 276.95217144 -102.84980026 264.59952477 C-102.83877785 257.90684693 -102.84010654 251.21474195 -102.87143898 244.52208519 C-102.89988423 238.39974181 -102.89633752 232.2782944 -102.86699823 226.15596297 C-102.8621039 223.93770624 -102.86913809 221.71938559 -102.88910076 219.50121328 C-102.91448563 216.49167702 -102.89697575 213.48534166 -102.86857224 210.47590256 C-102.88621453 209.60931104 -102.90385682 208.74271951 -102.92203373 207.84986764 C-102.82414557 203.03534511 -102.09754259 200.59092408 -98.64883924 197.13431859 C-97.43571309 196.08588561 -96.21946062 195.04105838 -95 194 C-92.5895332 191.39939811 -90.3034301 188.69559922 -88 186 C-87.18660156 185.06414062 -86.37320313 184.12828125 -85.53515625 183.1640625 C-43.13154494 134.0843027 -17.28217277 75.87399335 -3 13 C-2.6560385 11.51537191 -2.31110907 10.03096745 -1.96484375 8.546875 C-1.30231674 5.69954963 -0.64616713 2.85107077 0 0 Z " fill="#DD8400" transform="translate(1996,1057)"/>
<path d="M0 0 C19.54198256 -0.07030923 39.0839392 -0.12309498 58.62602234 -0.15543652 C67.7012456 -0.17085728 76.77638993 -0.19185435 85.8515625 -0.22631836 C93.76823388 -0.25636831 101.68484806 -0.27560975 109.6015749 -0.28226548 C113.78730166 -0.28615153 117.97286486 -0.29518236 122.15853882 -0.31719017 C126.11150501 -0.33780279 130.06424285 -0.34378474 134.01725769 -0.33932304 C135.45540108 -0.34013733 136.89355345 -0.34595369 138.33164978 -0.35761642 C152.22110916 -0.46457518 165.52063851 1.4341454 178.5 6.5625 C179.38236328 6.90764648 180.26472656 7.25279297 181.17382812 7.60839844 C195.57286311 13.46483891 207.15554548 21.96440221 218 33 C218.74765625 33.74894531 219.4953125 34.49789063 220.265625 35.26953125 C236.01424959 51.97919395 247.13083409 76.60026906 247.12304783 99.6553793 C247.12503888 100.96165639 247.12702993 102.26793349 247.12908131 103.61379474 C247.12622876 105.05132212 247.12328318 106.48884932 247.12025452 107.92637634 C247.12069081 109.46271885 247.1215668 110.99906128 247.12284368 112.53540331 C247.12507716 116.74958129 247.12108304 120.9637338 247.11606562 125.17790854 C247.11174486 129.72520358 247.1132087 134.27249719 247.1139679 138.8197937 C247.1144921 146.69579852 247.11135611 154.57179504 247.10573006 162.44779778 C247.09760104 173.8351586 247.0949984 185.22251543 247.09374207 196.60987885 C247.09155375 215.08538049 247.08489964 233.56087771 247.07543945 252.03637695 C247.06625963 269.98299131 247.05918158 287.92960447 247.05493164 305.8762207 C247.05453756 307.53572515 247.05453756 307.53572515 247.05413551 309.22875493 C247.05283047 314.77895092 247.05156676 320.32914691 247.05032361 325.87934291 C247.03995787 371.919565 247.02234554 417.95978227 247 464 C244.64412316 463.84803925 242.28835136 463.69467174 239.93261719 463.54052734 C237.96479279 463.41259293 237.96479279 463.41259293 235.95721436 463.28207397 C230.04009718 462.86029628 224.14709526 462.26396008 218.25 461.625 C217.03916748 461.49488525 215.82833496 461.36477051 214.58081055 461.23071289 C206.84774116 460.3761592 199.17547332 459.33000665 191.50195312 458.05297852 C186.10319233 457.15650748 180.70368005 456.45011031 175.26391602 455.83959961 C168.2713799 455.0486393 161.29135515 454.1631706 154.31188965 453.2651062 C152.30867978 453.00754472 150.30522219 452.75191216 148.30175781 452.49633789 C147.03170898 452.33254639 145.76166016 452.16875488 144.453125 452 C143.33067383 451.855625 142.20822266 451.71125 141.05175781 451.5625 C135.35861696 450.77212904 129.68090559 449.87398548 124 449 C124 400.16 124 351.32 124 301 C43.48 301 -37.04 301 -120 301 C-120 339.28 -120 377.56 -120 417 C-145.98857671 413.61018565 -145.98857671 413.61018565 -156.48828125 412.2109375 C-158.78319225 411.90616809 -161.07811443 411.60148284 -163.37304688 411.296875 C-166.87046741 410.83249541 -170.3678195 410.36762457 -173.86499023 409.90136719 C-177.32255947 409.44058056 -180.78039465 408.98183567 -184.23828125 408.5234375 C-185.27382645 408.38489349 -186.30937164 408.24634949 -187.376297 408.10360718 C-188.36240463 407.97322052 -189.34851227 407.84283386 -190.36450195 407.70849609 C-191.63944267 407.53886856 -191.63944267 407.53886856 -192.94013977 407.36581421 C-197.28704484 406.84613046 -201.64290793 406.42454856 -206 406 C-206.07021544 379.28690301 -206.12304948 352.57381994 -206.15543652 325.86064911 C-206.17087696 313.45605883 -206.19191234 301.05152603 -206.22631836 288.64697266 C-206.25630731 277.82972724 -206.2755955 267.01252347 -206.28226548 256.19523764 C-206.28616169 250.47251825 -206.29525907 244.74991799 -206.31719017 239.02723694 C-206.33770557 233.62972127 -206.34380365 228.23237266 -206.33932304 222.8348217 C-206.34014156 220.86453783 -206.34601678 218.89424778 -206.35761642 216.92399788 C-206.50920509 189.82357884 -200.3513855 166.37217801 -181.29296875 146.296875 C-180.53628906 145.53890625 -179.77960938 144.7809375 -179 144 C-178.25363281 143.24203125 -177.50726562 142.4840625 -176.73828125 141.703125 C-159.59012328 125.2635686 -137.28053845 117.44940697 -113.7512207 117.71899414 C-91.96469279 118.25277491 -72.77798101 124.85271288 -56 139 C-55.19820312 139.64453125 -54.39640625 140.2890625 -53.5703125 140.953125 C-39.11256544 153.11384682 -29.55923462 170.32110924 -25 188.5 C-24.68808716 189.70765015 -24.68808716 189.70765015 -24.36987305 190.93969727 C-22.48570184 199.27775321 -23 205.94954858 -23 215 C25.51 215 74.02 215 124 215 C120.11788682 158.70935886 108.59762039 106.60334985 72 62 C71.21625 61.01386719 70.4325 60.02773437 69.625 59.01171875 C65.81709153 54.25826544 61.92908178 49.76849183 57.54296875 45.54296875 C56 44 56 44 53.5625 41 C50.34844422 37.23720299 46.78003101 34.17952441 43 31 C41.71996094 29.88818359 41.71996094 29.88818359 40.4140625 28.75390625 C27.90452296 18.04368404 14.49669771 8.81121588 0 1 C0 0.67 0 0.34 0 0 Z " fill="#3E3E3E" transform="translate(1580,1084)"/>
<path d="M0 0 C39.27 0 78.54 0 119 0 C121.97 14.52 124.94 29.04 128 44 C129.76217858 52.53413357 131.52484842 61.06807823 133.29510498 69.6005249 C134.54432232 75.62508619 135.78944043 81.65049517 137.03515625 87.67578125 C137.53969025 90.11523919 138.04424747 92.55469233 138.54882812 94.99414062 C139.3077893 98.66347409 140.0667012 102.3328177 140.82543945 106.00219727 C143.64980398 119.66097965 146.47996047 133.31850565 149.32722473 146.97253418 C150.81003673 154.08410218 152.28283086 161.19768826 153.75 168.3125 C156.07742557 179.5836902 158.43312194 190.84880087 160.79568481 202.1126709 C163.83182083 216.58977606 166.84823176 231.07050054 169.8125 245.5625 C173.02421047 261.26366214 176.25827861 276.96015133 179.50424194 292.65426636 C180.03733329 295.23196481 180.57023546 297.8097024 181.10293579 300.38748169 C181.85584682 304.03056796 182.60941402 307.67351774 183.36328125 311.31640625 C183.5981575 312.45247818 183.83303375 313.58855011 184.07502747 314.75904846 C185.51728586 321.71994543 186.99430308 328.67119112 188.54370117 335.60913086 C189 338 189 338 189 341 C177.26996525 340.41043724 165.58347362 339.60280547 153.88671875 338.546875 C152.28553912 338.40468609 150.68433181 338.26280868 149.08309937 338.12121582 C145.70078579 337.82173211 142.31861555 337.52069968 138.93655396 337.21838379 C129.98188488 336.41842221 121.02607517 335.63135685 112.0703125 334.84375 C111.17174341 334.76465645 110.27317432 334.6855629 109.34737587 334.60407257 C93.51406484 333.21106051 77.67773929 331.8600481 61.8364563 330.56082153 C58.08846253 330.25213826 54.34097556 329.93777705 50.59350586 329.62280273 C39.7370654 328.71997807 28.89379561 327.89787317 18.01171875 327.37890625 C-0.82303862 326.44148585 -15.9579574 324.4624555 -33.24951172 316.24267578 C-50.72358474 308.34785671 -70.16674303 305.62758925 -89 303 C-89.80026611 302.8872876 -90.60053223 302.7745752 -91.42504883 302.65844727 C-96.7720711 301.98240094 -102.09294399 301.86352316 -107.47827148 301.76074219 C-124.39206859 301.40262664 -139.63589521 299.53918161 -155 292 C-156.39798828 291.32130859 -156.39798828 291.32130859 -157.82421875 290.62890625 C-179.12294841 279.66763534 -194.86946293 260.26443981 -202.1875 237.5625 C-202.81195362 235.38070457 -203.41743304 233.19335117 -204 231 C-204.22816406 230.16339844 -204.45632813 229.32679688 -204.69140625 228.46484375 C-209.73528192 206.20830145 -205.20413171 182.25250956 -194.08203125 162.61328125 C-189.71829797 155.81073496 -184.66111356 149.75609869 -179 144 C-178.25234375 143.23945312 -177.5046875 142.47890625 -176.734375 141.6953125 C-159.04504871 124.76744727 -136.19232756 117.43083927 -112.03027344 117.64648438 C-89.47037055 118.29289993 -68.7717524 126.91332162 -52 142 C-51.29230469 142.62519531 -50.58460938 143.25039062 -49.85546875 143.89453125 C-34.8420073 157.9603975 -25.87208458 177.89540795 -23 198 C-23 203.28 -23 208.56 -23 214 C25.18 214 73.36 214 123 214 C120.77297157 151.64320405 104.03992799 95.89342718 61.1171875 49.3046875 C59.01057905 47.01151594 56.97496719 44.66708271 54.9375 42.3125 C51.90905683 38.90995502 48.76707918 35.84740597 45.28125 32.91796875 C43.60995003 31.51281758 41.96792348 30.07264889 40.34375 28.61328125 C28.16345937 17.77558854 14.36057171 8.68600119 0 1 C0 0.67 0 0.34 0 0 Z " fill="#3E3E3E" transform="translate(646,1084)"/>
<path d="M0 0 C1.2983931 -0.00014603 2.59678619 -0.00029205 3.93452454 -0.0004425 C7.4732082 -0.00072794 11.01185756 0.00512764 14.55053329 0.01213145 C18.25675022 0.01840736 21.96296804 0.01897213 25.66918945 0.02015686 C32.67775049 0.02325772 39.68629583 0.03145426 46.69484997 0.04150635 C54.67795276 0.05270624 62.66105633 0.05818769 70.64416504 0.06320179 C87.0570567 0.07363797 103.46993259 0.09121319 119.8828125 0.11352539 C117.86401425 2.17771044 115.99240265 3.7933944 113.51171875 5.27758789 C112.86098389 5.67276611 112.21024902 6.06794434 111.53979492 6.47509766 C110.84861572 6.89202881 110.15743652 7.30895996 109.4453125 7.73852539 C102.25652496 12.15709847 95.51033883 16.87833653 88.8828125 22.11352539 C87.98304688 22.81993164 87.08328125 23.52633789 86.15625 24.25415039 C46.77292196 55.80621147 17.29125134 99.96401708 5.34130859 149.22631836 C4.923729 150.94510976 4.4770845 152.65677391 4.02734375 154.36743164 C-8.32658453 203.46959328 -3.76377499 259.73952698 17.8515625 305.67211914 C18.8828125 308.11352539 18.8828125 308.11352539 18.8828125 311.11352539 C-23.3571875 311.11352539 -65.5971875 311.11352539 -109.1171875 311.11352539 C-109.2380966 257.59109595 -109.2380966 257.59109595 -109.26367188 235.11352539 C-109.28145293 219.61089084 -109.30232394 204.10830531 -109.34350586 188.60571289 C-109.37348783 177.31382808 -109.39278136 166.02198314 -109.39945298 154.73005962 C-109.40335036 148.75583138 -109.41245533 142.78171718 -109.43437767 136.80752563 C-109.45488197 131.17362837 -109.46099333 125.53989112 -109.45651054 119.90596008 C-109.45732955 117.84859851 -109.46321146 115.79123106 -109.47480392 113.73390198 C-109.63804258 83.24405732 -101.14766314 57.30181944 -81.1171875 34.11352539 C-80.15039062 32.99204102 -80.15039062 32.99204102 -79.1640625 31.84790039 C-58.68217895 9.94119016 -29.35938289 -0.08688476 0 0 Z " fill="#3E3E3E" transform="translate(296.1171875,1083.886474609375)"/>
<path d="M0 0 C57.09 0 114.18 0 173 0 C171.78184108 7.91803296 170.54423975 15.68835291 168.875 23.5 C168.56284546 24.98270386 168.56284546 24.98270386 168.24438477 26.49536133 C166.86534749 33.01645501 165.45254598 39.53013132 164.03515625 46.04296875 C163.33574019 49.25776962 162.63651824 52.47261261 161.9375 55.6875 C161.76227814 56.49295258 161.58705627 57.29840515 161.40652466 58.12826538 C159.26616153 67.97893955 157.19633275 77.83169386 155.36254883 87.74487305 C153.62559839 97.12020851 151.63823947 106.44184706 149.67529297 115.77197266 C148.98554219 119.06911104 148.30568315 122.36814406 147.62890625 125.66796875 C144.96328562 138.65601328 142.22482946 151.6244716 139.40240479 164.5791626 C136.92603023 175.94595394 134.47871353 187.30554965 132.36230469 198.74609375 C130.62549806 208.12103239 128.63815359 217.44225527 126.67529297 226.77197266 C125.98554219 230.06911104 125.30568315 233.36814406 124.62890625 236.66796875 C121.83213052 250.29673175 118.95347516 263.90451902 116 277.5 C111.55970121 297.94976099 107.18971135 318.41128837 103.3359375 338.98120117 C102.01442753 346.01584158 100.55022737 353.01223269 99 360 C90.60972208 359.34932539 82.32174672 358.23937944 74 357 C70.45779421 344.6722552 67.94230683 332.20923057 65.5 319.625 C63.15503815 307.5863297 60.74103579 295.59522904 57.87109375 283.66992188 C56.71053775 278.78049423 55.70899622 273.86973436 54.75 268.9375 C54.32953388 266.8111768 53.90895206 264.68487647 53.48828125 262.55859375 C53.12841942 260.73069627 52.76856044 258.90279822 52.40875244 257.07489014 C51.09920034 250.42740266 49.78248701 243.78134886 48.46081543 237.13626099 C47.95224988 234.57430421 47.44724803 232.01166269 46.94238281 229.44897461 C45.24246049 220.8709246 43.41988456 212.34094831 41.38285828 203.83644104 C40.0406646 198.22568599 38.8509444 192.59979117 37.75 186.9375 C37.32953388 184.8111768 36.90895206 182.68487647 36.48828125 180.55859375 C36.12841942 178.73069627 35.76856044 176.90279822 35.40875244 175.07489014 C34.09920034 168.42740266 32.78248701 161.78134886 31.46081543 155.13626099 C30.95224988 152.57430421 30.44724803 150.01166269 29.94238281 147.44897461 C28.24246049 138.8709246 26.41988456 130.34094831 24.38285828 121.83644104 C23.04066561 116.22569022 21.85086208 110.59980449 20.75 104.9375 C20.32827278 102.80335621 19.90638563 100.66924402 19.484375 98.53515625 C19.25298828 97.35969238 19.02160156 96.18422852 18.78320312 94.97314453 C17.20068883 86.93807395 15.60171663 78.90626164 14 70.875 C13.73931229 69.56763382 13.73931229 69.56763382 13.47335815 68.2338562 C10.97203746 55.70454387 8.35315755 43.20817041 5.59863281 30.73193359 C4.43699265 25.43064754 3.30842558 20.12252314 2.1875 14.8125 C1.96811768 13.78898437 1.74873535 12.76546875 1.52270508 11.7109375 C1.32314209 10.76089844 1.1235791 9.81085938 0.91796875 8.83203125 C0.74031982 7.99389893 0.5626709 7.1557666 0.37963867 6.29223633 C0 4 0 4 0 0 Z " fill="#3E3E3E" transform="translate(912,1084)"/>
<path d="M0 0 C38.94 0 77.88 0 118 0 C114.99367914 3.00632086 111.95527909 4.86225093 108.3125 6.9375 C85.3127099 20.42400859 64.3502474 38.97405235 48 60 C47.20078125 60.99386719 46.4015625 61.98773437 45.578125 63.01171875 C22.8021546 91.56281809 7.56600649 126.0071143 -0.25 161.5625 C-0.40114258 162.23224854 -0.55228516 162.90199707 -0.70800781 163.59204102 C-3.86790986 178.9261255 -4.30128817 194.55487635 -4.31884766 210.14916992 C-4.32817555 212.08298651 -4.33834831 214.01679917 -4.34928894 215.9506073 C-4.37628108 221.13525898 -4.39164552 226.31988399 -4.40471697 231.50458694 C-4.42048426 236.94712447 -4.44723011 242.38960856 -4.4727478 247.83210754 C-4.51929725 258.10916817 -4.55615572 268.38623912 -4.58942068 278.6633504 C-4.6278118 290.3758143 -4.67717671 302.08822419 -4.72740483 313.80064237 C-4.83036964 337.86705476 -4.91974388 361.93350191 -5 386 C-6.72729867 385.84706851 -8.4544916 385.69294249 -10.18164062 385.53833008 C-11.14348267 385.4526326 -12.10532471 385.36693512 -13.09631348 385.27864075 C-17.57749164 384.84862228 -22.03627331 384.26810266 -26.5 383.6875 C-34.07328209 382.71702487 -41.65093538 381.80191422 -49.23828125 380.94921875 C-50.02947357 380.86010727 -50.82066589 380.77099579 -51.63583374 380.67918396 C-55.59267248 380.23430949 -59.54994476 379.79377554 -63.5078125 379.3581543 C-64.97006367 379.19460224 -66.43230377 379.03095124 -67.89453125 378.8671875 C-69.19237549 378.72394043 -70.49021973 378.58069336 -71.82739258 378.43310547 C-75 378 -75 378 -78 377 C-74.60984389 359.11979635 -71.04951067 341.27998199 -67.37109375 323.45703125 C-66.82712924 320.8152114 -66.28328882 318.17336624 -65.73957825 315.53149414 C-64.42975633 309.16881099 -63.11799956 302.80652828 -61.8054741 296.44440234 C-60.73199892 291.24085248 -59.65929498 286.03714413 -58.58703613 280.83334351 C-46.33057247 221.35329403 -34.00763058 161.88704745 -21.65679932 102.42652893 C-18.54417462 87.44093136 -15.43539861 72.45454481 -12.33156967 57.46712303 C-11.18030549 51.90892301 -10.02808846 46.35092045 -8.87576866 40.79293919 C-8.01911482 36.66069616 -7.1630409 32.52833508 -6.30847168 28.3956604 C-5.54871809 24.72154239 -4.78737233 21.04775837 -4.0246563 17.37425423 C-3.62792148 15.46121944 -3.23300093 13.54780867 -2.83815002 11.63438416 C-2.49154579 9.96733177 -2.49154579 9.96733177 -2.13793945 8.26660156 C-1.94037552 7.31255432 -1.74281158 6.35850708 -1.53926086 5.37554932 C-1 3 -1 3 0 0 Z " fill="#3E3E3E" transform="translate(1232,1084)"/>
<path d="M0 0 C0.33 0 0.66 0 1 0 C1 22.11 1 44.22 1 67 C-21.11 67 -43.22 67 -66 67 C-66 66.67 -66 66.34 -66 66 C-65.1028125 65.8040625 -64.205625 65.608125 -63.28125 65.40625 C-46.98713962 61.50104999 -32.5336715 54.420877 -21 42 C-20.40703125 41.4121875 -19.8140625 40.824375 -19.203125 40.21875 C-8.55606118 29.15900929 -2.81851336 14.94085724 0 0 Z " fill="#000000" transform="translate(1999,1933)"/>
<path d="M0 0 C0.33 0 0.66 0 1 0 C1.1959375 0.8971875 1.391875 1.794375 1.59375 2.71875 C5.49895001 19.01286038 12.579123 33.4663285 25 45 C25.5878125 45.59296875 26.175625 46.1859375 26.78125 46.796875 C37.84099071 57.44393882 52.05914276 63.18148664 67 66 C67 66.33 67 66.66 67 67 C44.89 67 22.78 67 0 67 C0 44.89 0 22.78 0 0 Z " fill="#000000" transform="translate(0,1933)"/>
<path d="M0 0 C22.11 0 44.22 0 67 0 C67 22.11 67 44.22 67 67 C66.67 67 66.34 67 66 67 C65.70609375 65.65421875 65.70609375 65.65421875 65.40625 64.28125 C62.05813502 50.31152889 56.46536556 37.93024357 47 27 C46.39285156 26.19691406 45.78570313 25.39382812 45.16015625 24.56640625 C33.73349511 10.99078895 16.7553634 4.82640214 0 1 C0 0.67 0 0.34 0 0 Z " fill="#000000" transform="translate(1933,0)"/>
<path d="M0 0 C22.11 0 44.22 0 67 0 C67 0.33 67 0.66 67 1 C66.1028125 1.1959375 65.205625 1.391875 64.28125 1.59375 C50.31152889 4.94186498 37.93024357 10.53463444 27 20 C26.175 20.63808594 25.35 21.27617187 24.5 21.93359375 C11.3226945 32.82546033 4.08753877 50.63304692 1 67 C0.67 67 0.34 67 0 67 C0 44.89 0 22.78 0 0 Z " fill="#000000" transform="translate(0,0)"/>
<path d="M0 0 C0.66 0.33 1.32 0.66 2 1 C-2.95 5.95 -7.9 10.9 -13 16 C-13.66 15.67 -14.32 15.34 -15 15 C-10.28109462 9.59947495 -5.69641143 4.38185495 0 0 Z " fill="#FFAA29" transform="translate(30,16)"/>
</svg>
